# xmcd CD database file
#
# Track frame offsets:
#	150
#	13571
#	26624
#	45502
#	64602
#	78438
#	93148
#	107644
#	121666
#	135777
#	149456
#	162890
#	177503
#	190294
#	205088
#	219834
#	234830
#	255321
#	274289
#	289964
#	304681
#	328369
#
# Disc length: 4519 seconds
#
# Revision: 0
# Processed by: cddbd v1.5.2PL0 Copyright (c) Steve Scherf et al.
# Submitted via: CDex 1.70beta2
#
DISCID=2911a516
DTITLE=Jack Teagarden - Basin Street Blues CD3
DYEAR=1900
DGENRE=Jazz
TTITLE0=In My Solitude
TTITLE1=I'm Sorry I Made You Cry
TTITLE2=Basin Street Blues
TTITLE3=Back O'Town
TTITLE4=Blues After Hours
TTITLE5=A Jam Session At Victor
TTITLE6=Say It Simple
TTITLE7=St.Louis Blues
TTITLE8=Rockin' Chair
TTITLE9=Jack-Armstrong Blues
TTITLE10=Fifty-Fifty Blues
TTITLE11=Some Day
TTITLE12=Before Long
TTITLE13=Lovely Weather We#re Having
TTITLE14=Please Stop Playing Those Blues
TTITLE15=A Song Was Born
TTITLE16=Do You Know What It Means To Miss New Orleans
TTITLE17=St.James Infirmary
TTITLE18=When Your Lover Has Gone
TTITLE19=Aunt Hagar's Blues
TTITLE20=Stars Fell On Alabama
TTITLE21=Lover
EXTD=
EXTT0=
EXTT1=
EXTT2=
EXTT3=
EXTT4=
EXTT5=
EXTT6=
EXTT7=
EXTT8=
EXTT9=
EXTT10=
EXTT11=
EXTT12=
EXTT13=
EXTT14=
EXTT15=
EXTT16=
EXTT17=
EXTT18=
EXTT19=
EXTT20=
EXTT21=
PLAYORDER=
